<?xml version="1.0" encoding="utf-8"?>
<!-- Generator: Adobe Illustrator 19.1.0, SVG Export Plug-In . SVG Version: 6.00 Build 0)  -->
<svg version="1.1" id="Layer_1" xmlns="http://www.w3.org/2000/svg" xmlns:xlink="http://www.w3.org/1999/xlink" x="0px" y="0px"
	 viewBox="0 0 150 150" style="enable-background:new 0 0 150 150;" xml:space="preserve">
<style type="text/css">
	.st0{fill:#967F4C;}
</style>
<path class="st0" d="M74.036,145.072c-38.592,0-69.987-31.395-69.987-69.982c0-38.589,31.395-69.984,69.987-69.984
	c38.604,0,70.013,31.395,70.013,69.984C144.049,113.677,112.64,145.072,74.036,145.072 M74.036,9.753
	c-36.029,0-65.34,29.309-65.34,65.338c0,36.024,29.312,65.336,65.34,65.336c36.044,0,65.365-29.312,65.365-65.336
	C139.401,39.062,110.08,9.753,74.036,9.753z"/>
<path class="st0" d="M48.989,112.117c-0.619,0-1.201-0.24-1.638-0.677c-0.851-0.846-0.912-2.225-0.139-3.142
	c4.871-5.788,13.337-18.596,14.156-29.884l0.152-2.096H49.031c-1.281,0-2.323-1.042-2.323-2.323c0-1.284,1.042-2.325,2.323-2.325
	h12.031l-1.57-3.137c-0.208-0.43-0.421-0.853-0.69-1.259l-0.269-0.401l0.191,0.271l-1.367-2.389
	c-5.666-9.581-2.467-21.968,7.118-27.644l1.604-0.946c2.746-1.394,6.206-2.152,9.627-2.152c2.717,0,6.725,0.469,10.385,2.712
	c4.619,2.824,7.182,7.742,7.214,13.845c0.002,0.619-0.237,1.206-0.672,1.643c-0.438,0.443-1.02,0.69-1.638,0.692h-0.012
	c-1.347,0-2.318-1.059-2.325-2.313c-0.022-4.56-1.702-7.891-4.988-9.903c-2.736-1.675-5.859-2.025-7.996-2.025
	c-2.631,0-5.265,0.55-7.228,1.506l-1.602,0.939c-7.385,4.37-9.835,13.928-5.468,21.311l1.377,2.421
	c1.117,1.753,1.92,3.531,2.46,5.414l0.408,1.416h13.674c1.281,0,2.325,1.042,2.325,2.325c0,1.281-1.044,2.323-2.325,2.323H66.13
	l-0.103,1.849c-0.335,6.103-2.702,13.261-6.844,20.702l-1.917,3.45l3.903-0.56c1.301-0.186,2.646-0.281,3.991-0.281
	c7.642,0,13.183,2.89,14.699,3.776c2.991,1.345,5.612,1.973,7.981,1.973c5.568,0,7.83-3.448,7.849-3.48c0.408-0.611,1.135-1,1.917-1
	c0.457,0,0.902,0.135,1.284,0.391c1.066,0.709,1.355,2.154,0.643,3.22c-1.687,2.528-5.786,5.482-11.767,5.482h-0.002
	c-3.098,0-6.414-0.792-9.857-2.36l-0.237-0.122c-0.584-0.345-5.759-3.279-12.557-3.279c-5.431,0-10.348,1.846-14.62,5.485
	C50.072,111.922,49.539,112.117,48.989,112.117"/>
</svg>
