<?xml version="1.0" encoding="utf-8"?>
<!-- Generator: Adobe Illustrator 19.1.0, SVG Export Plug-In . SVG Version: 6.00 Build 0)  -->
<svg version="1.1" id="Layer_1" xmlns="http://www.w3.org/2000/svg" xmlns:xlink="http://www.w3.org/1999/xlink" x="0px" y="0px"
	 viewBox="0 0 150 150" style="enable-background:new 0 0 150 150;" xml:space="preserve">
<style type="text/css">
	.st0{fill:#4F5E9E;}
</style>
<path class="st0" d="M50.508,112.62c-0.47,0-0.925-0.144-1.313-0.411c-0.511-0.355-0.856-0.883-0.969-1.492
	c-0.11-0.611,0.02-1.23,0.372-1.739l48.507-70.415c0.435-0.631,1.152-1.008,1.918-1.008c0.47,0,0.925,0.144,1.313,0.411
	c0.514,0.355,0.856,0.883,0.969,1.492c0.113,0.609-0.02,1.23-0.372,1.739l-48.507,70.415
	C51.992,112.241,51.276,112.62,50.508,112.62"/>
<path class="st0" d="M55.265,66.77c-7.856,0-14.245-6.394-14.245-14.247c0-7.854,6.389-14.245,14.245-14.245
	c7.854,0,14.245,6.391,14.245,14.245C69.51,60.376,63.119,66.77,55.265,66.77 M55.265,42.925c-5.293,0-9.598,4.305-9.598,9.598
	c0,5.293,4.305,9.598,9.598,9.598c5.29,0,9.598-4.305,9.598-9.598C64.862,47.23,60.555,42.925,55.265,42.925z"/>
<path class="st0" d="M94.267,111.904c-7.854,0-14.242-6.394-14.242-14.252c0-7.851,6.389-14.24,14.242-14.24
	c7.859,0,14.25,6.389,14.25,14.24C108.517,105.51,102.125,111.904,94.267,111.904 M94.267,88.061c-5.29,0-9.595,4.302-9.595,9.59
	c0,5.295,4.305,9.603,9.595,9.603c5.295,0,9.603-4.307,9.603-9.603C103.869,92.364,99.562,88.061,94.267,88.061z"/>
<path class="st0" d="M74.758,145.09c-38.603,0-70.006-31.403-70.006-69.999c0-38.598,31.403-70.001,70.006-70.001
	c38.613,0,70.028,31.403,70.028,70.001C144.787,113.687,113.372,145.09,74.758,145.09 M74.758,9.737
	C38.718,9.737,9.4,39.053,9.4,75.091c0,36.033,29.319,65.352,65.359,65.352c36.05,0,65.378-29.319,65.378-65.352
	C140.137,39.053,110.808,9.737,74.758,9.737z"/>
</svg>
