<?xml version="1.0" encoding="UTF-8" standalone="no"?>
<svg width="277px" height="64px" viewBox="0 0 277 64" version="1.1" xmlns="http://www.w3.org/2000/svg" xmlns:xlink="http://www.w3.org/1999/xlink">
    <!-- Generator: Sketch 40.3 (33839) - http://www.bohemiancoding.com/sketch -->
    <title>Page 1</title>
    <desc>Created with Sketch.</desc>
    <defs>
        <polygon id="path-1" points="34.5028267 12.62336 34.5028267 0.422293085 0.522496 0.422293085 0.522496 12.62336 34.5028267 12.62336"></polygon>
        <polygon id="path-3" points="70.0255645 0.68864 0 0.68864 0 45.2026422 70.0255645 45.2026422 70.0255645 0.68864"></polygon>
        <polygon id="path-5" points="70.0255645 45.2266667 0 45.2266667 0 0.71293546 70.0255645 0.71293546 70.0255645 45.2266667"></polygon>
    </defs>
    <g id="Formax-v4" stroke="none" stroke-width="1" fill="none" fill-rule="evenodd">
        <g id="Formax_Borrow" transform="translate(-135.000000, -18.000000)">
            <g id="Page-1" transform="translate(135.000000, 18.000000)">
                <path d="M117.087147,16.5723307 C117.087147,16.5723307 98.4119467,16.619264 96.4808533,16.619264 C94.5480533,16.619264 84.8362667,16.923904 84.67328,24.025344 L84.67328,47.1737173 L91.2669867,47.1737173 L91.2669867,35.0273707 L101.309013,35.0273707 C101.309013,35.0273707 105.502293,35.1468373 107.537493,29.4943573 L91.26016,29.4943573 L91.26016,25.645824 C91.26016,24.7054507 90.6056533,22.6105173 99.42144,22.2853973 L110.072747,22.2853973 C110.072747,22.2853973 115.709867,22.8178773 117.087147,16.5723307" id="Fill-1" fill="#3264AE"></path>
                <path d="M136.48384,39.9177387 C136.48384,40.7522987 135.91808,41.475072 134.353067,41.544192 L117.899093,41.544192 C117.899093,41.544192 116.398933,41.4503253 116.35456,39.9092053 L116.35456,29.8364587 C116.35456,29.8364587 116.21632,28.2432853 117.943467,28.221952 L134.90176,28.160512 C134.90176,28.160512 136.518827,28.160512 136.48384,29.8262187 L136.48384,39.9177387 Z M133.120853,22.5686187 L120.791893,22.5686187 C111.73888,22.5686187 110.339413,28.8431787 110.339413,29.9004587 L110.339413,30.495232 C110.339413,30.495232 110.3744,34.3164587 110.339413,40.2249387 C110.306987,46.131712 119.71584,46.8749653 119.71584,46.8749653 L132.837547,46.8749653 C142.592853,46.687232 142.685013,39.8196053 142.685013,39.8196053 L142.685013,30.034432 C142.654293,22.6582187 133.120853,22.5686187 133.120853,22.5686187 L133.120853,22.5686187 Z" id="Fill-3" fill="#3264AE"></path>
                <path d="M161.554603,22.575616 L161.554603,28.2502827 L155.218603,28.2502827 C155.218603,28.2502827 151.825749,28.0838827 151.825749,30.7351893 L151.825749,47.0611627 L145.640789,47.0611627 L145.640789,29.1044693 C145.640789,29.1044693 145.699669,22.900736 154.993323,22.6071893 L161.554603,22.575616 Z" id="Fill-5" fill="#3264AE"></path>
                <path d="M164.038827,47.022336 L164.038827,29.4283093 C164.038827,29.4283093 164.0064,22.4446293 176.18688,22.5623893 C184.01024,22.5623893 186.577067,25.0618027 186.577067,25.0618027 C186.577067,25.0618027 190.358187,22.077696 197.888,22.474496 C205.412693,22.8772693 208.539307,25.1104427 208.70656,30.6110293 L208.70656,47.1110827 L202.18624,47.0957227 C202.18624,47.0957227 202.167467,30.8909227 202.167467,30.5521493 C202.167467,30.116096 201.844907,28.011776 195.834027,27.9511893 C190.582613,27.8923093 189.692587,29.854976 189.692587,30.410496 L189.692587,47.1076693 L183.269547,47.1076693 L183.269547,30.7927893 C183.269547,30.7927893 183.48032,27.7190827 176.790187,27.750656 C171.337387,27.7190827 170.491733,29.7594027 170.491733,30.500096 L170.491733,47.060736 L164.038827,47.022336 Z" id="Fill-7" fill="#3264AE"></path>
                <path d="M237.416363,40.0244053 C237.416363,40.0244053 237.321643,41.500672 235.938389,41.500672 L219.205376,41.500672 C219.205376,41.500672 217.597696,41.3095253 217.597696,40.0832853 C217.597696,38.8596053 217.626709,35.907072 217.626709,35.907072 C217.626709,35.907072 217.626709,34.3958187 219.236096,34.3958187 L235.752363,34.4896853 C235.752363,34.4896853 237.416363,34.2703787 237.416363,35.873792 L237.416363,40.0244053 Z M243.749803,40.509952 L243.725056,29.3398187 C243.579136,23.4518187 236.470869,22.5626453 233.136896,22.5626453 C230.969429,22.5626453 227.463936,22.6164053 227.463936,22.6164053 L227.510016,27.794432 L234.396416,27.7398187 C237.661269,28.0615253 237.381376,29.8108587 237.381376,29.8108587 L221.300309,29.8415787 C211.886336,29.780992 211.382869,35.3890987 211.382869,35.3890987 L211.382869,39.885312 C211.417003,45.2135253 218.162603,46.979072 220.891563,46.979072 C222.483883,46.979072 235.013376,47.0396587 235.013376,47.0396587 C243.869269,46.569472 243.749803,40.509952 243.749803,40.509952 L243.749803,40.509952 Z" id="Fill-9" fill="#3264AE"></path>
                <path d="M242.514603,22.575616 L250.091349,22.575616 C250.091349,22.575616 257.537536,30.232576 258.351616,31.161856 C258.973696,31.881216 260.329643,31.8035627 261.055829,31.118336 L269.019989,22.5875627 L276.491776,22.6507093 C276.491776,22.6507093 269.893803,30.0013227 268.167509,31.6934827 C266.023083,33.8046293 262.496256,34.789376 259.608576,34.779136 C256.518656,34.763776 253.614763,34.0427093 251.066709,31.589376 L242.514603,22.575616 Z" id="Fill-11" fill="#3264AE"></path>
                <g id="Group-15" transform="translate(242.346667, 34.298112)">
                    <mask id="mask-2" fill="white">
                        <use xlink:href="#path-1"></use>
                    </mask>
                    <g id="Clip-14"></g>
                    <path d="M34.5030827,12.62336 L26.9297493,12.62336 C26.9297493,12.62336 19.476736,4.97066667 18.6643627,4.03797333 C18.0474027,3.32032 16.6880427,3.39882667 15.9652693,4.08576 L7.99428267,12.6148267 L0.522496,12.5482667 C0.522496,12.5482667 7.12388267,5.20106667 8.84846933,3.50549333 C10.9911893,1.39946667 14.5222827,0.410453333 17.403136,0.4224 C20.495616,0.436053333 23.401216,1.15882667 25.948416,3.60704 L34.5030827,12.62336 Z" id="Fill-13" fill="#3264AE" mask="url(#mask-2)"></path>
                </g>
                <g id="Group-18" transform="translate(0.000000, 0.164779)">
                    <mask id="mask-4" fill="white">
                        <use xlink:href="#path-3"></use>
                    </mask>
                    <g id="Clip-17"></g>
                    <path d="M58.108416,22.7621547 C58.108416,22.7621547 37.3075627,36.3250347 36.7878827,36.658688 C35.2484693,37.6477013 34.6298027,37.4821547 33.0886827,36.6672213 C33.0886827,36.6672213 12.6010027,23.216128 12.0250027,22.8389547 C11.4490027,22.463488 11.2109227,21.6963413 12.0318293,21.260288 L31.3828693,10.0133547 C31.3828693,10.0133547 33.0084693,8.826368 32.336896,6.179328 C32.336896,6.179328 57.238016,20.7849813 58.1963093,21.3379413 C58.648576,21.6016213 58.771456,22.3107413 58.108416,22.7621547 M67.4157227,18.4041813 C62.473216,15.6939947 38.821376,1.80258133 38.821376,1.80258133 C36.0574293,0.231594667 33.680896,0.371541333 30.885376,1.91095467 C28.737536,3.091968 5.43726933,16.7683413 2.208256,18.5944747 C-1.02075733,20.415488 -0.322730667,24.145408 1.83620267,25.4783147 C3.99684267,26.8146347 30.491136,43.7541547 30.491136,43.7541547 C33.8899627,46.0479147 36.865536,45.2893013 39.328256,43.7413547 C41.9232427,42.1046613 61.2410027,29.7151147 67.3133227,25.8571947 C70.7437227,23.674368 71.074816,20.415488 67.4157227,18.4041813" id="Fill-16" fill="#3264AE" mask="url(#mask-4)"></path>
                </g>
                <g id="Group-21" transform="translate(0.000000, 18.084779)">
                    <mask id="mask-6" fill="white">
                        <use xlink:href="#path-5"></use>
                    </mask>
                    <g id="Clip-20"></g>
                    <path d="M58.108416,22.7879253 C58.108416,22.7879253 37.3075627,36.3508053 36.7878827,36.6844587 C35.2484693,37.6777387 34.6298027,37.507072 33.0886827,36.6964053 C33.0886827,36.6964053 12.6010027,23.2393387 12.0250027,22.8655787 C11.4490027,22.487552 11.2109227,21.719552 12.0318293,21.2852053 L31.3828693,10.0365653 C31.3828693,10.0365653 33.0084693,8.85384533 32.336896,6.20424533 C32.336896,6.20424533 57.238016,20.8116053 58.1963093,21.361152 C58.648576,21.6265387 58.771456,22.3330987 58.108416,22.7879253 M67.4157227,18.4333653 C62.473216,15.718912 38.821376,1.82920533 38.821376,1.82920533 C36.0574293,0.255658667 33.680896,0.395605333 30.885376,1.93501867 C28.737536,3.11944533 5.43726933,16.7958187 2.208256,18.6185387 C-1.02075733,20.4404053 -0.322730667,24.1711787 1.83620267,25.5040853 C3.99684267,26.8361387 30.491136,43.776512 30.491136,43.776512 C33.8899627,46.0719787 36.865536,45.3142187 39.328256,43.766272 C41.9232427,42.1321387 61.2410027,29.742592 67.3133227,25.882112 C70.7437227,23.7001387 71.074816,20.4404053 67.4157227,18.4333653" id="Fill-19" fill="#9D7F47" mask="url(#mask-6)"></path>
                </g>
                <polygon id="Fill-22" fill="#3264AE" points="53.9712853 25.630208 43.866112 32.2213547 49.9085653 37.1544747 60.6818987 30.2595413"></polygon>
            </g>
        </g>
    </g>
</svg>